<svg xmlns="http://www.w3.org/2000/svg" xmlns:xlink="http://www.w3.org/1999/xlink" viewBox="0 0 178.4 32.7"><defs><style>.cls-1{mask:url(#mask);filter:url(#luminosity-noclip-3);}.cls-2,.cls-4{mix-blend-mode:multiply;}.cls-2{fill:url(#linear-gradient);}.cls-3{mask:url(#mask-2);filter:url(#luminosity-noclip-4);}.cls-4{fill:url(#linear-gradient-2);}.cls-5{mask:url(#mask-3);}.cls-6{fill:#d1c18d;}.cls-7{mask:url(#mask-4);}.cls-8{fill:url(#linear-gradient-3);}.cls-9{filter:url(#luminosity-noclip-2);}.cls-10{filter:url(#luminosity-noclip);}</style><filter id="luminosity-noclip" x="40.79" y="-8239.5" width="131.18" height="32766" filterUnits="userSpaceOnUse" color-interpolation-filters="sRGB"><feFlood flood-color="#fff" result="bg"/><feBlend in="SourceGraphic" in2="bg"/></filter><mask id="mask" x="40.79" y="-8239.5" width="131.18" height="32766" maskUnits="userSpaceOnUse"><g class="cls-10"/></mask><linearGradient id="linear-gradient" x1="106.39" y1="28.45" x2="106.39" y2="-2.45" gradientUnits="userSpaceOnUse"><stop offset="0" stop-color="#b3b3b3"/><stop offset="0.43" stop-color="#fff"/><stop offset="0.46" stop-color="#fff"/><stop offset="0.49" stop-color="#fff"/><stop offset="0.58" stop-color="#fff"/><stop offset="1" stop-color="#b3b3b3"/></linearGradient><filter id="luminosity-noclip-2" x="0" y="-8239.5" width="37.92" height="32766" filterUnits="userSpaceOnUse" color-interpolation-filters="sRGB"><feFlood flood-color="#fff" result="bg"/><feBlend in="SourceGraphic" in2="bg"/></filter><mask id="mask-2" x="0" y="-8239.5" width="37.92" height="32766" maskUnits="userSpaceOnUse"><g class="cls-9"/></mask><linearGradient id="linear-gradient-2" x1="18.96" y1="0.17" x2="18.96" y2="32.7" xlink:href="#linear-gradient"/><filter id="luminosity-noclip-3" x="40.79" y="-2.45" width="131.18" height="30.9" filterUnits="userSpaceOnUse" color-interpolation-filters="sRGB"><feFlood flood-color="#fff" result="bg"/><feBlend in="SourceGraphic" in2="bg"/></filter><mask id="mask-3" x="40.79" y="-2.45" width="131.18" height="30.9" maskUnits="userSpaceOnUse"><g class="cls-1"><path class="cls-2" d="M59.92,23.1c0,1.16.24,1.62,1.12,1.62a6.78,6.78,0,0,0,1.16-.08v3.27a11.87,11.87,0,0,1-3,.54c-1.91,0-3.28-.66-3.65-2.61a11,11,0,0,1-7.42,2.61c-3.86,0-7.35-2.07-7.35-6.26,0-5.35,4.28-6.22,8.26-6.68,3.4-.62,6.43-.25,6.43-3C55.48,10,53,9.58,51,9.58c-2.66,0-4.52,1.08-4.73,3.4H41.58c.33-5.51,5-7.13,9.75-7.13,4.19,0,8.59,1.7,8.59,6.22Zm-4.73-6c-1.45.95-3.74.91-5.81,1.29S45.52,19.49,45.52,22c0,2.12,2.7,2.74,4.36,2.74,2.07,0,5.31-1.08,5.31-4.06ZM65,6.43H69.5v3h.12a7.17,7.17,0,0,1,6.59-3.56c2.62,0,5.07,1.12,6,3.56A7.75,7.75,0,0,1,89,5.85c4.52,0,7.17,2,7.17,7.21V27.87H91.4V15.35c0-3.4-.21-5.77-3.9-5.77-3.2,0-4.57,2.12-4.57,5.73V27.87H78.21V14.1c0-2.94-.92-4.52-3.78-4.52-2.45,0-4.69,2-4.69,5.56V27.87H65ZM118,23.1c0,1.16.25,1.62,1.12,1.62a6.78,6.78,0,0,0,1.16-.08v3.27a11.87,11.87,0,0,1-3,.54c-1.9,0-3.27-.66-3.65-2.61a11,11,0,0,1-7.42,2.61c-3.86,0-7.34-2.07-7.34-6.26,0-5.35,4.27-6.22,8.25-6.68,3.4-.62,6.43-.25,6.43-3,0-2.44-2.53-2.9-4.44-2.9-2.65,0-4.52,1.08-4.73,3.4H99.71c.33-5.51,5-7.13,9.74-7.13,4.19,0,8.59,1.7,8.59,6.22Zm-4.73-6c-1.45.95-3.73.91-5.81,1.29s-3.85,1.07-3.85,3.56c0,2.12,2.69,2.74,4.35,2.74,2.08,0,5.31-1.08,5.31-4.06Zm9.88-10.7h4.43v4.15h.09A6.93,6.93,0,0,1,134,5.85a11.82,11.82,0,0,1,1.79.12v4.57a15.68,15.68,0,0,0-2-.21c-3.23,0-5.81,2.61-5.81,7.34v10.2h-4.72Zm14.38,0h3.57V0h4.73V6.43h4.27V10h-4.27V21.4c0,2,.16,3,2.28,3a7.88,7.88,0,0,0,2-.17v3.65c-1,.08-2,.25-3.07.25-4.94,0-5.85-1.91-5.93-5.48V10h-3.57Zm18.55,11.94c0,3.36,1.82,6.35,5.76,6.35a5,5,0,0,0,5.23-3.57h4.48c-1,4.69-5,7.3-9.71,7.3-6.72,0-10.49-4.68-10.49-11.28,0-6.1,4-11.32,10.37-11.32,6.76,0,10.91,6.1,10.12,12.52Zm11-3.11c-.16-3-2.2-5.68-5.39-5.68a5.6,5.6,0,0,0-5.64,5.68ZM162.09-2.45h5.6L161.8,3.48h-3.44Z"/></g></mask><filter id="luminosity-noclip-4" x="0" y="0.17" width="37.92" height="32.53" filterUnits="userSpaceOnUse" color-interpolation-filters="sRGB"><feFlood flood-color="#fff" result="bg"/><feBlend in="SourceGraphic" in2="bg"/></filter><mask id="mask-4" x="0" y="0.17" width="37.92" height="32.53" maskUnits="userSpaceOnUse"><g class="cls-3"><path class="cls-4" d="M35.8,2.58C32.36-1,25.56-.45,19,3.49,12.35-.45,5.56-1,2.11,2.58-1.64,6.51-.23,14.17,5,21.05c-.87,3.72-.38,7.06,1.7,9.25C9.37,33.07,14,33.37,19,31.59c5,1.78,9.59,1.48,12.23-1.29,2.08-2.19,2.57-5.53,1.7-9.25C38.15,14.17,39.56,6.51,35.8,2.58ZM32.42,5.75c2.49,2.61,2.07,7.33-.66,12a30.37,30.37,0,0,0-7-9.79,33.26,33.26,0,0,0-3.15-2.65C26,3.33,30.14,3.36,32.42,5.75Zm-2.71,14.9A25.63,25.63,0,0,1,27.51,23,31.15,31.15,0,0,1,19,28.84,31.15,31.15,0,0,1,10.41,23a25.63,25.63,0,0,1-2.2-2.38A25.45,25.45,0,0,1,14.93,9.84a25.77,25.77,0,0,1,4-3.15,25.77,25.77,0,0,1,4,3.15A25.45,25.45,0,0,1,29.71,20.65ZM5.5,5.75C7.78,3.36,12,3.33,16.3,5.27a33.26,33.26,0,0,0-3.15,2.65,30.57,30.57,0,0,0-7,9.79C3.43,13.08,3,8.36,5.5,5.75ZM9,28.85A6.35,6.35,0,0,1,7.59,24l.94.93A32.51,32.51,0,0,0,15.46,30C12.77,30.63,10.44,30.35,9,28.85Zm19.9,0c-1.43,1.5-3.77,1.78-6.45,1.17A32.22,32.22,0,0,0,29.38,25c.33-.31.64-.62.94-.93A6.3,6.3,0,0,1,28.91,28.85Z"/></g></mask><linearGradient id="linear-gradient-3" x1="173.07" y1="9.6" x2="178.4" y2="9.6" gradientUnits="userSpaceOnUse"><stop offset="0" stop-color="#c2ac86"/><stop offset="1" stop-color="#b59a76"/></linearGradient></defs><title>Asset 1</title><g id="Layer_2" data-name="Layer 2"><g id="Layer_1-2" data-name="Layer 1"><g class="cls-5"><path class="cls-6" d="M59.92,23.1c0,1.16.24,1.62,1.12,1.62a6.78,6.78,0,0,0,1.16-.08v3.27a11.87,11.87,0,0,1-3,.54c-1.91,0-3.28-.66-3.65-2.61a11,11,0,0,1-7.42,2.61c-3.86,0-7.35-2.07-7.35-6.26,0-5.35,4.28-6.22,8.26-6.68,3.4-.62,6.43-.25,6.43-3C55.48,10,53,9.58,51,9.58c-2.66,0-4.52,1.08-4.73,3.4H41.58c.33-5.51,5-7.13,9.75-7.13,4.19,0,8.59,1.7,8.59,6.22Zm-4.73-6c-1.45.95-3.74.91-5.81,1.29S45.52,19.49,45.52,22c0,2.12,2.7,2.74,4.36,2.74,2.07,0,5.31-1.08,5.31-4.06ZM65,6.43H69.5v3h.12a7.17,7.17,0,0,1,6.59-3.56c2.62,0,5.07,1.12,6,3.56A7.75,7.75,0,0,1,89,5.85c4.52,0,7.17,2,7.17,7.21V27.87H91.4V15.35c0-3.4-.21-5.77-3.9-5.77-3.2,0-4.57,2.12-4.57,5.73V27.87H78.21V14.1c0-2.94-.92-4.52-3.78-4.52-2.45,0-4.69,2-4.69,5.56V27.87H65ZM118,23.1c0,1.16.25,1.62,1.12,1.62a6.78,6.78,0,0,0,1.16-.08v3.27a11.87,11.87,0,0,1-3,.54c-1.9,0-3.27-.66-3.65-2.61a11,11,0,0,1-7.42,2.61c-3.86,0-7.34-2.07-7.34-6.26,0-5.35,4.27-6.22,8.25-6.68,3.4-.62,6.43-.25,6.43-3,0-2.44-2.53-2.9-4.44-2.9-2.65,0-4.52,1.08-4.73,3.4H99.71c.33-5.51,5-7.13,9.74-7.13,4.19,0,8.59,1.7,8.59,6.22Zm-4.73-6c-1.45.95-3.73.91-5.81,1.29s-3.85,1.07-3.85,3.56c0,2.12,2.69,2.74,4.35,2.74,2.08,0,5.31-1.08,5.31-4.06Zm9.88-10.7h4.43v4.15h.09A6.93,6.93,0,0,1,134,5.85a11.82,11.82,0,0,1,1.79.12v4.57a15.68,15.68,0,0,0-2-.21c-3.23,0-5.81,2.61-5.81,7.34v10.2h-4.72Zm14.38,0h3.57V0h4.73V6.43h4.27V10h-4.27V21.4c0,2,.16,3,2.28,3a7.88,7.88,0,0,0,2-.17v3.65c-1,.08-2,.25-3.07.25-4.94,0-5.85-1.91-5.93-5.48V10h-3.57Zm18.55,11.94c0,3.36,1.82,6.35,5.76,6.35a5,5,0,0,0,5.23-3.57h4.48c-1,4.69-5,7.3-9.71,7.3-6.72,0-10.49-4.68-10.49-11.28,0-6.1,4-11.32,10.37-11.32,6.76,0,10.91,6.1,10.12,12.52Zm11-3.11c-.16-3-2.2-5.68-5.39-5.68a5.6,5.6,0,0,0-5.64,5.68Z"/></g><g class="cls-7"><path class="cls-6" d="M35.8,2.58C32.36-1,25.56-.45,19,3.49,12.35-.45,5.56-1,2.11,2.58-1.64,6.51-.23,14.17,5,21.05c-.87,3.72-.38,7.06,1.7,9.25C9.37,33.07,14,33.37,19,31.59c5,1.78,9.59,1.48,12.23-1.29,2.08-2.19,2.57-5.53,1.7-9.25C38.15,14.17,39.56,6.51,35.8,2.58ZM32.42,5.75c2.49,2.61,2.07,7.33-.66,12a30.37,30.37,0,0,0-7-9.79,33.26,33.26,0,0,0-3.15-2.65C26,3.33,30.14,3.36,32.42,5.75Zm-2.71,14.9A25.63,25.63,0,0,1,27.51,23,31.15,31.15,0,0,1,19,28.84,31.15,31.15,0,0,1,10.41,23a25.63,25.63,0,0,1-2.2-2.38A25.45,25.45,0,0,1,14.93,9.84a25.77,25.77,0,0,1,4-3.15,25.77,25.77,0,0,1,4,3.15A25.45,25.45,0,0,1,29.71,20.65ZM5.5,5.75C7.78,3.36,12,3.33,16.3,5.27a33.26,33.26,0,0,0-3.15,2.65,30.57,30.57,0,0,0-7,9.79C3.43,13.08,3,8.36,5.5,5.75ZM9,28.85A6.35,6.35,0,0,1,7.59,24l.94.93A32.51,32.51,0,0,0,15.46,30C12.77,30.63,10.44,30.35,9,28.85Zm19.9,0c-1.43,1.5-3.77,1.78-6.45,1.17A32.22,32.22,0,0,0,29.38,25c.33-.31.64-.62.94-.93A6.3,6.3,0,0,1,28.91,28.85Z"/></g><path class="cls-8" d="M178.4,9.6a2.82,2.82,0,0,1-.21,1.11,2.63,2.63,0,0,1-.59.86,2.5,2.5,0,0,1-.84.55,2.69,2.69,0,0,1-2.94-.58,2.64,2.64,0,0,1-.55-.86,2.92,2.92,0,0,1-.2-1.08,2.82,2.82,0,0,1,.21-1.11,2.54,2.54,0,0,1,1.44-1.41,2.69,2.69,0,0,1,1-.2,2.73,2.73,0,0,1,1,.2,2.66,2.66,0,0,1,.84.55,2.63,2.63,0,0,1,.59.86A2.82,2.82,0,0,1,178.4,9.6Zm-.58,0a2.45,2.45,0,0,0-.16-.91,2.24,2.24,0,0,0-.44-.71,2,2,0,0,0-.66-.46,2.07,2.07,0,0,0-.82-.16,2,2,0,0,0-.82.16,2,2,0,0,0-.67.46,2.32,2.32,0,0,0-.6,1.62,2.49,2.49,0,0,0,.15.87,2,2,0,0,0,.41.71,1.9,1.9,0,0,0,.66.49,2.25,2.25,0,0,0,1.69,0,2,2,0,0,0,.66-.46,2.13,2.13,0,0,0,.44-.71A2.42,2.42,0,0,0,177.82,9.6Zm-2.62,1.55h-.49v-3h1.14a1.34,1.34,0,0,1,.82.2A.76.76,0,0,1,177,9a.75.75,0,0,1-.23.6,1,1,0,0,1-.56.22l.85,1.32h-.56l-.78-1.28h-.47Zm.56-1.7H176a.64.64,0,0,0,.22-.06.46.46,0,0,0,.16-.15.55.55,0,0,0,0-.25.34.34,0,0,0-.06-.22.47.47,0,0,0-.15-.13L176,8.58h-.83v.88Z"/></g></g></svg>